<?xml version="1.0" encoding="UTF-8"?>
<svg xmlns="http://www.w3.org/2000/svg" viewBox="0 0 64 64" fill="#bbb">
  <path d="m48.79,63.92c3-.39,5.4-1.79,7.15-4.27,1.17-1.66,1.77-3.53,1.8-5.56v-24.35s1.99,1.96,1.99,1.96c.6.57,1.31.9,2.16.74,1-.19,1.69-.78,2-1.76.31-1,0-1.84-.72-2.56L36.87,1.67c-2.83-2.41-7.4-2.21-10.15.55L.58,28.42c-.63.78-.76,1.65-.34,2.57.42.92,1.17,1.41,2.18,1.48.77.05,1.39-.3,1.92-.82.62-.61,1.23-1.24,1.92-1.93v24.09c.01.8.12,1.63.3,2.41,1.09,4.64,5.12,7.78,9.93,7.79l32.3-.08ZM11.26,25.11c0-.27.07-.47.27-.65L30.24,5.77c.3-.3.69-.56,1.09-.7,1.13-.38,2.05.04,2.87.87,6.11,6.18,12.22,12.35,18.34,18.52.16.17.22.32.22.54,0,5.38,0,10.76,0,16.14l-.17,14.14c-.49,2.04-2.45,3.74-5.04,3.73-10.42-.03-20.85-.02-31.27-.02-2.82,0-5.01-2.2-5.01-5.02v-28.87Z"/>
  <path d="m31.98,27.09c5.72.03,10.85,2.46,14.89,6.36,2.48,2.17-.69,5.9-3.22,3.75-6.49-6.65-16.45-6.88-23.02-.22-2.03,2.16-5.45-.19-4.04-2.79,3.69-4.44,9.72-7.03,15.39-7.1Z"/>
  <path d="m38.88,44.6c-.74,0-1.35-.31-1.86-.83-2.43-2.4-6.07-2.94-8.89-.93-1.16.84-2.22,2.26-3.83,1.62-1.78-.62-2.22-2.89-.83-4.2,3.28-3.18,8.28-4.65,12.6-2.84,2,.82,6.26,3,5.09,5.67-.38.92-1.31,1.51-2.29,1.51Z"/>
  <path d="m32.14,51.99c-1.33,0-2.49-1.18-2.49-2.54,0-1.35,1.12-2.46,2.47-2.47,1.3,0,2.48,1.17,2.48,2.48,0,1.33-1.16,2.53-2.47,2.53Z"/>
</svg>
